<svg width="90" height="91" viewBox="0 0 90 91" fill="none" xmlns="http://www.w3.org/2000/svg">
<path d="M15 15.4342H75.2365H86.2365V66.2538L75.2365 77.4342H2.99998V27.0277L15 15.4342Z" fill="#FE640B"/>
<path d="M49.68 46.7222C49.68 50.1782 48.96 53.2342 47.52 55.8902C46.08 58.5462 44.128 60.6422 41.664 62.1782L46.032 68.9462H40.704L37.536 64.0982C35.712 64.6422 33.856 64.9142 31.968 64.9142C28.768 64.9142 25.808 64.1782 23.088 62.7062C20.4 61.2022 18.256 59.0742 16.656 56.3222C15.056 53.5702 14.256 50.3702 14.256 46.7222C14.256 43.0422 15.056 39.8422 16.656 37.1222C18.256 34.3702 20.4 32.2582 23.088 30.7862C25.808 29.3142 28.768 28.5782 31.968 28.5782C35.168 28.5782 38.112 29.3142 40.8 30.7862C43.52 32.2582 45.68 34.3702 47.28 37.1222C48.88 39.8422 49.68 43.0422 49.68 46.7222ZM19.968 46.7702C19.968 49.5542 20.512 51.9542 21.6 53.9702C22.688 55.9542 24.144 57.4742 25.968 58.5302C27.824 59.5542 29.824 60.0662 31.968 60.0662C32.96 60.0662 33.888 59.9702 34.752 59.7782L31.536 54.5462H36.912L38.976 57.9062C40.544 56.7862 41.76 55.2822 42.624 53.3942C43.52 51.5062 43.968 49.2982 43.968 46.7702C43.968 43.9542 43.424 41.5542 42.336 39.5702C41.28 37.5542 39.84 36.0342 38.016 35.0102C36.224 33.9862 34.208 33.4742 31.968 33.4742C29.728 33.4742 27.696 33.9862 25.872 35.0102C24.048 36.0342 22.608 37.5542 21.552 39.5702C20.496 41.5542 19.968 43.9542 19.968 46.7702Z" fill="#EFF1F5"/>
<path d="M57.2655 46.6262H53.3775V42.4022H57.2655V33.4262L62.4975 32.2742V42.4022H67.5855V46.6262H62.4975V64.4342H57.2655V46.6262Z" fill="#EFF1F5"/>
<path d="M71.856 29.8182L66.704 22.7462H70.8L73.808 27.2902L76.656 22.7462H80.848L75.664 29.6262L81.296 37.4342H77.328L73.84 32.2502L70.512 37.4342H66.352L71.856 29.8182Z" fill="#EFF1F5"/>
</svg>
